# xmcd
#
# Track frame offsets:
#	182
#	13455
#	27757
#	40270
#	53260
#	66065
#	80937
#	94720
#	105262
#	117320
#	131172
#	143290
#	171565
#	183715
#	207275
#	219117
#	231787
#	253917
#
# Disc length: 3646
#
# Revision: 2
# Processed by: cddbd v1.5.1PL0 Copyright (c) Steve Scherf et al.
# Submitted via: CDex 1.50Beta7
# Normalized: r0:TDELIM( - ),TSWAP
#
DISCID=fb0e3c12
DTITLE=Various Artists Swing - Masters of Jazz, Vol. 6: Male Vocal Classics
DYEAR=1900
DGENRE=Jazz
TTITLE0=Cab Calloway - Some of These Days
TTITLE1=Louis Armstrong - When Your Lover Has Gone
TTITLE2=Louis Prima - Sing, Sing, Sing
TTITLE3=Dizzy Gillespie - Ool-Ya-Koo
TTITLE4=Billy Eckstine - Caravan
TTITLE5=King Cole - Lush Life
TTITLE6=King Pleasure - Moody's Mood for Love
TTITLE7=Chet Baker - My Funny Valentine
TTITLE8=Jos Hendricks and The Dave Lambert Singers - Cloudburst
TTITLE9=Count Basie - Alright, Okay, You Win
TTITLE10=Jackie Paris - It Could Happen to You
TTITLE11=Bill Henderson and The Horace Silver Quintet - Senior Blues
TTITLE12=Oscar Brown Jr. - Afro Blue
TTITLE13=Jack Teagarden - Basin Street Blues
TTITLE14=Mose Allison - Your Mind Is on Vacation
TTITLE15=Mel Torme - Whisper Not
TTITLE16=John Coltrane and Johnny Hartman - My One and Only Love
TTITLE17=Jimmy Scott - This Love of Mine
EXTD=
EXTT0=
EXTT1=
EXTT2=
EXTT3=
EXTT4=
EXTT5=
EXTT6=
EXTT7=
EXTT8=
EXTT9=
EXTT10=
EXTT11=
EXTT12=
EXTT13=
EXTT14=
EXTT15=
EXTT16=
EXTT17=
PLAYORDER=
